<svg xmlns="http://www.w3.org/2000/svg" viewBox="0 0 1024 500" width="1024" height="500">
  <defs>
    <linearGradient id="bg" x1="0" y1="0" x2="1" y2="1">
      <stop offset="0" stop-color="#161f36"/>
      <stop offset="0.55" stop-color="#0e1424"/>
      <stop offset="1" stop-color="#0b0f19"/>
    </linearGradient>
    <radialGradient id="glow" cx="0.5" cy="0.5" r="0.5">
      <stop offset="0" stop-color="#6ea8fe" stop-opacity="0.30"/>
      <stop offset="1" stop-color="#6ea8fe" stop-opacity="0"/>
    </radialGradient>
  </defs>
  <rect width="1024" height="500" fill="url(#bg)"/>
  <circle cx="250" cy="250" r="260" fill="url(#glow)"/>
  <g transform="translate(250 250) scale(3.1) translate(-32 -32)">
    <g transform="translate(-3.5 0) rotate(-16 32 30)">
      <g fill="none" stroke="#6ea8fe" stroke-width="3.2" stroke-linecap="round" opacity="0.55">
        <line x1="46" y1="22" x2="54" y2="18"/>
        <line x1="48" y1="28" x2="56" y2="27"/>
        <line x1="48" y1="34" x2="56" y2="35"/>
      </g>
      <path d="M32 14a12 12 0 0 0-12 12v9l-4 6v2h32v-2l-4-6v-9a12 12 0 0 0-12-12z" fill="#6ea8fe"/>
      <rect x="30.5" y="9" width="3" height="5" rx="1.5" fill="#6ea8fe"/>
      <circle cx="32" cy="50" r="4.5" fill="#6ea8fe"/>
    </g>
  </g>
  <text x="470" y="228" font-family="Roboto, Helvetica, Arial, sans-serif" font-size="86" font-weight="700" fill="#f2f5fb" letter-spacing="-1">Persistent</text>
  <text x="472" y="296" font-family="Roboto, Helvetica, Arial, sans-serif" font-size="35" font-weight="400" fill="#6ea8fe">Reminders that don't give up.</text>
</svg>
