<svg xmlns="http://www.w3.org/2000/svg" viewBox="0 0 512 512" width="512" height="512">
  <defs>
    <linearGradient id="bg" x1="0" y1="0" x2="0" y2="1">
      <stop offset="0" stop-color="#141b2e"/>
      <stop offset="1" stop-color="#0b0f19"/>
    </linearGradient>
  </defs>
  <rect width="512" height="512" fill="url(#bg)"/>
  <g transform="translate(256 256) scale(6.0) translate(-32 -32)">
    <g transform="translate(-3.5 0) rotate(-16 32 30)">
      <g fill="none" stroke="#6ea8fe" stroke-width="3.2" stroke-linecap="round" opacity="0.55">
        <line x1="46" y1="22" x2="54" y2="18"/>
        <line x1="48" y1="28" x2="56" y2="27"/>
        <line x1="48" y1="34" x2="56" y2="35"/>
      </g>
      <path d="M32 14a12 12 0 0 0-12 12v9l-4 6v2h32v-2l-4-6v-9a12 12 0 0 0-12-12z" fill="#6ea8fe"/>
      <rect x="30.5" y="9" width="3" height="5" rx="1.5" fill="#6ea8fe"/>
      <circle cx="32" cy="50" r="4.5" fill="#6ea8fe"/>
    </g>
  </g>
</svg>
